# xmcd
#
# Track frame offsets: 
#        158
#        11999
#        24470
#        36483
#        49994
#        62611
#        75553
#        86524
#        101483
#        110752
#        121729
#        134985
#        145491
#        158077
#        171240
#        182854
#        195221
#        207393
#        215657
#        226201
#        240467
#        250881
#        270626
#        284031
#        301285
#
# Disc length: 4250 seconds
#
# Revision: 0
# Processed by: cddbd v1.5.2PL0 Copyright (c) Steve Scherf et al.
# Submitted via: ExactAudioCopy v0.95b4
#
DISCID=74109819
DTITLE='Big' Smokey Smothers - Smokey Smothers sings the Backporch Blu
DTITLE=es
DYEAR=1960
DGENRE=Blues
TTITLE0=I Can't Judge Nobody
TTITLE1=Come On Rock Little Girl
TTITLE2=Honey I Ain't Teasin'
TTITLE3=You're Gonna Be Sorry
TTITLE4=Give It Back
TTITLE5=Smokey's Love Sick Blues
TTITLE6=I've Been Drinking Muddy Water
TTITLE7=Crying Tears
TTITLE8=What Am I Going To Do
TTITLE9=Blind And Dumb Man Blues
TTITLE10=Midnight And Day
TTITLE11=I Ain't Gonna Be No Monkey-Man No More
TTITLE12=The Case Is Closed
TTITLE13=Hello Little School Girl
TTITLE14=Twist With Me Annie
TTITLE15=Way Up In The Mountains Of Kentucky
TTITLE16=I Got My Eyes On You
TTITLE17=I'm Looking For You
TTITLE18=Everybody's Talking
TTITLE19=Suger Pie
TTITLE20=I'll Be Your King
TTITLE21=Don't Mess With My Mew Mew
TTITLE22=You Are My Bird
TTITLE23=Searching For My Baby
TTITLE24=Hello Little School Girl
EXTD=
EXTT0=
EXTT1=
EXTT2=
EXTT3=
EXTT4=
EXTT5=
EXTT6=
EXTT7=
EXTT8=
EXTT9=
EXTT10=
EXTT11=
EXTT12=
EXTT13=
EXTT14=
EXTT15=
EXTT16=
EXTT17=
EXTT18=
EXTT19=
EXTT20=
EXTT21=
EXTT22=
EXTT23=
EXTT24=
PLAYORDER=
